<svg width="980" height="237" viewBox="0 0 980 237" fill="none" xmlns="http://www.w3.org/2000/svg">
<path d="M325.85 44.01L352.15 46.85" stroke="#FC5519" stroke-width="6.5" stroke-miterlimit="10" stroke-linecap="round" stroke-linejoin="round"/>
<path d="M334.189 33.11L343.799 57.75" stroke="#FC5519" stroke-width="6.5" stroke-miterlimit="10" stroke-linecap="round" stroke-linejoin="round"/>
<path d="M347.08 35.08L330.99 55.95" stroke="#FC5519" stroke-width="6.5" stroke-miterlimit="10" stroke-linecap="round" stroke-linejoin="round"/>
<path d="M213 174.372C213 174.372 339.431 165.602 420.331 233.192" stroke="#326EFF" stroke-width="6.5" stroke-miterlimit="10" stroke-linecap="round" stroke-linejoin="round"/>
<path d="M106.53 91.9199C87.5299 75.8299 59.0599 75.2999 42.0799 85.6799C38.3999 87.9299 34.7499 91.0499 34.0199 95.2999C33.5799 97.8899 34.0599 101.11 36.8999 102.63C41.1999 104.92 45.5099 102.06 46.4399 98.2499C48.4199 90.1299 46.1199 76.3199 35.9699 66.0399C19.8099 49.6699 -3.26014 40.8299 -19.6401 46.5199" stroke="#FFDE6C" stroke-width="6.5" stroke-miterlimit="10" stroke-linecap="round" stroke-linejoin="round"/>
<path d="M716.16 -45.26C757.57 -53.86 789.19 -52.27 793.4 -39.58C799 -22.69 753.95 7.44997 692.78 27.75C631.61 48.05 577.47 50.8 571.87 33.92C570.59 30.07 571.82 24.93 576.08 19.12" stroke="#07EC9E" stroke-width="6.5" stroke-miterlimit="10" stroke-linecap="round" stroke-linejoin="round"/>
<path d="M909.97 118.79C909.97 118.79 953.05 63.6699 1054.28 75.8799" stroke="#FC5519" stroke-width="6.5" stroke-miterlimit="10" stroke-linecap="round" stroke-linejoin="round"/>
</svg>
